<svg version="1.2" xmlns="http://www.w3.org/2000/svg" viewBox="0 0 1200 494" width="1200" height="494">
	<title>379-ai</title>
	<style>

	</style>
	<g id="Capa 2">
		<path id="my custom path" fill="#f77e27" d="m535.3 457.3c128.1-2.9 270.9-14.1 411.1-47.5 43.6-10.4 86.6-22.7 126.8-43 18-9.1 35.8-19.8 51.6-32.4 11.5-9.1 21.5-21.5 28.9-34.3 17.6-30.7 12.7-62.5-14.3-85.5-15.8-13.4-34.1-24.8-52.8-34-54.4-26.9-112.1-45.2-171-59.5-48.8-11.9-98.5-16.6-148.4-19.8-5.9-0.3-12.3 0-17.4-2.3-4.1-1.8-9.6-7.6-9.1-10.9 0.6-4.7 5.3-10.2 9.8-12.6 4.2-2.3 10.3-1.3 15.5-1.3 81.2-0.8 159.6 15.4 235.9 41.6 37.2 12.8 73.7 28.2 109.3 45.1 18.6 8.8 36.2 21.7 51.4 35.9 32.1 29.9 38.6 70.4 20.4 110.3-9.5 20.8-23.9 37.7-41.6 51.9-31.2 25.1-67.1 41.2-104.5 54.4-72.2 25.6-147 40.1-222.6 50.9q-135 19.1-271.3 21.3c-108.9 1.7-217.1-3.8-323.5-28.9-42.4-10.1-83.2-24.6-120.9-47-24.5-14.5-47-31.5-64.2-54.7-27.7-37.5-30.5-77.3-10-118.8 11.5-23.4 28.6-42.5 47.7-59.9 50.4-46 109.8-76.8 172.7-101.2 82-31.9 167.5-49.6 254.6-60.1 111.7-13.5 223.4-11.8 334.9 0.5 96.3 10.7 191.3 28.3 282.4 62.7 11.6 4.4 22.9 9.9 34.2 15.2 7.9 3.7 13 9.4 9.6 18.8-2.5 7-10.1 9.1-20.3 4.5-57.4-26-118.4-39.1-179.6-52-71.6-15-144-22.9-217-27.5-129.6-8.2-257.7 2-383.9 32.5-68.1 16.4-133.5 40.1-194.4 75-31.6 18-61.3 38.8-86.2 65.5-9.3 10-18.1 20.9-25.2 32.7-21.9 36.6-18.7 72.6 11 102.9 14.9 15.4 32.6 28.7 50.9 40 40.8 25 86.4 38.2 133 47.7 89.4 18.4 179.9 24 286.5 23.8z"/>
	</g>
</svg>